<mxfile host="app.diagrams.net" modified="2024-07-04T00:59:33.434Z" agent="Mozilla/5.0 (Windows NT 10.0; Win64; x64) AppleWebKit/537.36 (KHTML, like Gecko) Chrome/126.0.0.0 Safari/537.36" etag="_QW0mdu9ZLmr0AWDz6i5" version="24.6.4" type="device">
  <diagram name="Page-1" id="0d2VIHg2cwiPwlGrtZNR">
    <mxGraphModel dx="1418" dy="1826" grid="1" gridSize="10" guides="1" tooltips="1" connect="1" arrows="1" fold="1" page="1" pageScale="1" pageWidth="850" pageHeight="1100" math="0" shadow="0">
      <root>
        <mxCell id="0" />
        <mxCell id="1" parent="0" />
        <mxCell id="qlqU-e81dwh_bHePKwua-23" style="edgeStyle=orthogonalEdgeStyle;rounded=0;orthogonalLoop=1;jettySize=auto;html=1;exitX=0.5;exitY=0;exitDx=0;exitDy=0;" edge="1" parent="1" source="qlqU-e81dwh_bHePKwua-1" target="qlqU-e81dwh_bHePKwua-17">
          <mxGeometry relative="1" as="geometry" />
        </mxCell>
        <mxCell id="qlqU-e81dwh_bHePKwua-1" value="GameState" style="swimlane;fontStyle=0;childLayout=stackLayout;horizontal=1;startSize=26;fillColor=none;horizontalStack=0;resizeParent=1;resizeParentMax=0;resizeLast=0;collapsible=1;marginBottom=0;whiteSpace=wrap;html=1;" vertex="1" parent="1">
          <mxGeometry x="60" y="80" width="280" height="208" as="geometry" />
        </mxCell>
        <mxCell id="qlqU-e81dwh_bHePKwua-2" value="+ std::vector&amp;lt;std::pair&amp;lt;int, int&amp;gt;&amp;gt; m_ SnakePosition&lt;div&gt;&lt;br&gt;&lt;/div&gt;" style="text;strokeColor=none;fillColor=none;align=left;verticalAlign=top;spacingLeft=4;spacingRight=4;overflow=hidden;rotatable=0;points=[[0,0.5],[1,0.5]];portConstraint=eastwest;whiteSpace=wrap;html=1;" vertex="1" parent="qlqU-e81dwh_bHePKwua-1">
          <mxGeometry y="26" width="280" height="26" as="geometry" />
        </mxCell>
        <mxCell id="qlqU-e81dwh_bHePKwua-3" value="+ std::vector&amp;lt;std::pair&amp;lt;int, int&amp;gt;&amp;gt; m_ FoodPosition&lt;div&gt;&lt;br&gt;&lt;/div&gt;" style="text;strokeColor=none;fillColor=none;align=left;verticalAlign=top;spacingLeft=4;spacingRight=4;overflow=hidden;rotatable=0;points=[[0,0.5],[1,0.5]];portConstraint=eastwest;whiteSpace=wrap;html=1;" vertex="1" parent="qlqU-e81dwh_bHePKwua-1">
          <mxGeometry y="52" width="280" height="26" as="geometry" />
        </mxCell>
        <mxCell id="qlqU-e81dwh_bHePKwua-4" value="+ CurrentView m_CurrentView&lt;div&gt;&lt;div&gt;&lt;div&gt;&lt;br&gt;&lt;/div&gt;&lt;/div&gt;&lt;/div&gt;" style="text;strokeColor=none;fillColor=none;align=left;verticalAlign=top;spacingLeft=4;spacingRight=4;overflow=hidden;rotatable=0;points=[[0,0.5],[1,0.5]];portConstraint=eastwest;whiteSpace=wrap;html=1;" vertex="1" parent="qlqU-e81dwh_bHePKwua-1">
          <mxGeometry y="78" width="280" height="26" as="geometry" />
        </mxCell>
        <mxCell id="qlqU-e81dwh_bHePKwua-13" value="&lt;div&gt;&lt;div&gt;&lt;div&gt;+ Color m_FoodColor&lt;/div&gt;&lt;/div&gt;&lt;/div&gt;" style="text;strokeColor=none;fillColor=none;align=left;verticalAlign=top;spacingLeft=4;spacingRight=4;overflow=hidden;rotatable=0;points=[[0,0.5],[1,0.5]];portConstraint=eastwest;whiteSpace=wrap;html=1;" vertex="1" parent="qlqU-e81dwh_bHePKwua-1">
          <mxGeometry y="104" width="280" height="26" as="geometry" />
        </mxCell>
        <mxCell id="qlqU-e81dwh_bHePKwua-16" value="&lt;div&gt;&lt;div&gt;&lt;div&gt;+ Color m_TileColor&lt;/div&gt;&lt;/div&gt;&lt;/div&gt;&lt;div&gt;&lt;br&gt;&lt;/div&gt;" style="text;strokeColor=none;fillColor=none;align=left;verticalAlign=top;spacingLeft=4;spacingRight=4;overflow=hidden;rotatable=0;points=[[0,0.5],[1,0.5]];portConstraint=eastwest;whiteSpace=wrap;html=1;" vertex="1" parent="qlqU-e81dwh_bHePKwua-1">
          <mxGeometry y="130" width="280" height="26" as="geometry" />
        </mxCell>
        <mxCell id="qlqU-e81dwh_bHePKwua-15" value="&lt;div&gt;&lt;div&gt;&lt;div&gt;+ Color m_SnakeColor&lt;/div&gt;&lt;/div&gt;&lt;/div&gt;&lt;div&gt;&lt;br&gt;&lt;/div&gt;" style="text;strokeColor=none;fillColor=none;align=left;verticalAlign=top;spacingLeft=4;spacingRight=4;overflow=hidden;rotatable=0;points=[[0,0.5],[1,0.5]];portConstraint=eastwest;whiteSpace=wrap;html=1;" vertex="1" parent="qlqU-e81dwh_bHePKwua-1">
          <mxGeometry y="156" width="280" height="26" as="geometry" />
        </mxCell>
        <mxCell id="qlqU-e81dwh_bHePKwua-14" value="&lt;div&gt;&lt;div&gt;&lt;div&gt;+ float m_SnakeSpeed&lt;/div&gt;&lt;/div&gt;&lt;/div&gt;" style="text;strokeColor=none;fillColor=none;align=left;verticalAlign=top;spacingLeft=4;spacingRight=4;overflow=hidden;rotatable=0;points=[[0,0.5],[1,0.5]];portConstraint=eastwest;whiteSpace=wrap;html=1;" vertex="1" parent="qlqU-e81dwh_bHePKwua-1">
          <mxGeometry y="182" width="280" height="26" as="geometry" />
        </mxCell>
        <mxCell id="qlqU-e81dwh_bHePKwua-5" value="enum CurrentView" style="swimlane;fontStyle=0;childLayout=stackLayout;horizontal=1;startSize=26;fillColor=none;horizontalStack=0;resizeParent=1;resizeParentMax=0;resizeLast=0;collapsible=1;marginBottom=0;whiteSpace=wrap;html=1;" vertex="1" parent="1">
          <mxGeometry x="420" y="90" width="180" height="156" as="geometry" />
        </mxCell>
        <mxCell id="qlqU-e81dwh_bHePKwua-6" value="&lt;div&gt;MainMenu&lt;/div&gt;" style="text;strokeColor=none;fillColor=none;align=left;verticalAlign=top;spacingLeft=4;spacingRight=4;overflow=hidden;rotatable=0;points=[[0,0.5],[1,0.5]];portConstraint=eastwest;whiteSpace=wrap;html=1;" vertex="1" parent="qlqU-e81dwh_bHePKwua-5">
          <mxGeometry y="26" width="180" height="26" as="geometry" />
        </mxCell>
        <mxCell id="qlqU-e81dwh_bHePKwua-7" value="&lt;div&gt;PauseMenu&lt;/div&gt;" style="text;strokeColor=none;fillColor=none;align=left;verticalAlign=top;spacingLeft=4;spacingRight=4;overflow=hidden;rotatable=0;points=[[0,0.5],[1,0.5]];portConstraint=eastwest;whiteSpace=wrap;html=1;" vertex="1" parent="qlqU-e81dwh_bHePKwua-5">
          <mxGeometry y="52" width="180" height="26" as="geometry" />
        </mxCell>
        <mxCell id="qlqU-e81dwh_bHePKwua-11" value="&lt;div&gt;StartMenu&lt;/div&gt;" style="text;strokeColor=none;fillColor=none;align=left;verticalAlign=top;spacingLeft=4;spacingRight=4;overflow=hidden;rotatable=0;points=[[0,0.5],[1,0.5]];portConstraint=eastwest;whiteSpace=wrap;html=1;" vertex="1" parent="qlqU-e81dwh_bHePKwua-5">
          <mxGeometry y="78" width="180" height="26" as="geometry" />
        </mxCell>
        <mxCell id="qlqU-e81dwh_bHePKwua-9" value="&lt;div&gt;EndMenu&lt;/div&gt;" style="text;strokeColor=none;fillColor=none;align=left;verticalAlign=top;spacingLeft=4;spacingRight=4;overflow=hidden;rotatable=0;points=[[0,0.5],[1,0.5]];portConstraint=eastwest;whiteSpace=wrap;html=1;" vertex="1" parent="qlqU-e81dwh_bHePKwua-5">
          <mxGeometry y="104" width="180" height="26" as="geometry" />
        </mxCell>
        <mxCell id="qlqU-e81dwh_bHePKwua-10" value="None" style="text;strokeColor=none;fillColor=none;align=left;verticalAlign=top;spacingLeft=4;spacingRight=4;overflow=hidden;rotatable=0;points=[[0,0.5],[1,0.5]];portConstraint=eastwest;whiteSpace=wrap;html=1;" vertex="1" parent="qlqU-e81dwh_bHePKwua-5">
          <mxGeometry y="130" width="180" height="26" as="geometry" />
        </mxCell>
        <mxCell id="qlqU-e81dwh_bHePKwua-17" value="SnakeContants" style="swimlane;fontStyle=0;childLayout=stackLayout;horizontal=1;startSize=26;fillColor=none;horizontalStack=0;resizeParent=1;resizeParentMax=0;resizeLast=0;collapsible=1;marginBottom=0;whiteSpace=wrap;html=1;" vertex="1" parent="1">
          <mxGeometry x="110" y="-40" width="180" height="52" as="geometry" />
        </mxCell>
        <mxCell id="qlqU-e81dwh_bHePKwua-18" value="&lt;div&gt;SPEED&lt;/div&gt;" style="text;strokeColor=none;fillColor=none;align=left;verticalAlign=top;spacingLeft=4;spacingRight=4;overflow=hidden;rotatable=0;points=[[0,0.5],[1,0.5]];portConstraint=eastwest;whiteSpace=wrap;html=1;" vertex="1" parent="qlqU-e81dwh_bHePKwua-17">
          <mxGeometry y="26" width="180" height="26" as="geometry" />
        </mxCell>
        <mxCell id="qlqU-e81dwh_bHePKwua-24" value="snakepositionsystem.cpp" style="swimlane;fontStyle=0;childLayout=stackLayout;horizontal=1;startSize=26;fillColor=none;horizontalStack=0;resizeParent=1;resizeParentMax=0;resizeLast=0;collapsible=1;marginBottom=0;whiteSpace=wrap;html=1;" vertex="1" parent="1">
          <mxGeometry x="30" y="360" width="390" height="52" as="geometry" />
        </mxCell>
        <mxCell id="qlqU-e81dwh_bHePKwua-30" value="&lt;div&gt;&lt;div&gt;&lt;div&gt;+ void UpdateSnakePosition(const SnakePosition&amp;amp; snakePosition)&lt;/div&gt;&lt;/div&gt;&lt;/div&gt;" style="text;strokeColor=none;fillColor=none;align=left;verticalAlign=top;spacingLeft=4;spacingRight=4;overflow=hidden;rotatable=0;points=[[0,0.5],[1,0.5]];portConstraint=eastwest;whiteSpace=wrap;html=1;" vertex="1" parent="qlqU-e81dwh_bHePKwua-24">
          <mxGeometry y="26" width="390" height="26" as="geometry" />
        </mxCell>
        <mxCell id="qlqU-e81dwh_bHePKwua-32" value="System" style="swimlane;fontStyle=0;childLayout=stackLayout;horizontal=1;startSize=26;fillColor=none;horizontalStack=0;resizeParent=1;resizeParentMax=0;resizeLast=0;collapsible=1;marginBottom=0;whiteSpace=wrap;html=1;" vertex="1" parent="1">
          <mxGeometry x="380" y="446" width="280" height="208" as="geometry" />
        </mxCell>
        <mxCell id="qlqU-e81dwh_bHePKwua-33" value="+ std::vector&amp;lt;std::pair&amp;lt;int, int&amp;gt;&amp;gt; m_ SnakePosition&lt;div&gt;&lt;br&gt;&lt;/div&gt;" style="text;strokeColor=none;fillColor=none;align=left;verticalAlign=top;spacingLeft=4;spacingRight=4;overflow=hidden;rotatable=0;points=[[0,0.5],[1,0.5]];portConstraint=eastwest;whiteSpace=wrap;html=1;" vertex="1" parent="qlqU-e81dwh_bHePKwua-32">
          <mxGeometry y="26" width="280" height="26" as="geometry" />
        </mxCell>
        <mxCell id="qlqU-e81dwh_bHePKwua-34" value="+ std::vector&amp;lt;std::pair&amp;lt;int, int&amp;gt;&amp;gt; m_ FoodPosition&lt;div&gt;&lt;br&gt;&lt;/div&gt;" style="text;strokeColor=none;fillColor=none;align=left;verticalAlign=top;spacingLeft=4;spacingRight=4;overflow=hidden;rotatable=0;points=[[0,0.5],[1,0.5]];portConstraint=eastwest;whiteSpace=wrap;html=1;" vertex="1" parent="qlqU-e81dwh_bHePKwua-32">
          <mxGeometry y="52" width="280" height="26" as="geometry" />
        </mxCell>
        <mxCell id="qlqU-e81dwh_bHePKwua-35" value="+ CurrentView m_CurrentView&lt;div&gt;&lt;div&gt;&lt;div&gt;&lt;br&gt;&lt;/div&gt;&lt;/div&gt;&lt;/div&gt;" style="text;strokeColor=none;fillColor=none;align=left;verticalAlign=top;spacingLeft=4;spacingRight=4;overflow=hidden;rotatable=0;points=[[0,0.5],[1,0.5]];portConstraint=eastwest;whiteSpace=wrap;html=1;" vertex="1" parent="qlqU-e81dwh_bHePKwua-32">
          <mxGeometry y="78" width="280" height="26" as="geometry" />
        </mxCell>
        <mxCell id="qlqU-e81dwh_bHePKwua-36" value="&lt;div&gt;&lt;div&gt;&lt;div&gt;+ Color m_FoodColor&lt;/div&gt;&lt;/div&gt;&lt;/div&gt;" style="text;strokeColor=none;fillColor=none;align=left;verticalAlign=top;spacingLeft=4;spacingRight=4;overflow=hidden;rotatable=0;points=[[0,0.5],[1,0.5]];portConstraint=eastwest;whiteSpace=wrap;html=1;" vertex="1" parent="qlqU-e81dwh_bHePKwua-32">
          <mxGeometry y="104" width="280" height="26" as="geometry" />
        </mxCell>
        <mxCell id="qlqU-e81dwh_bHePKwua-37" value="&lt;div&gt;&lt;div&gt;&lt;div&gt;+ Color m_TileColor&lt;/div&gt;&lt;/div&gt;&lt;/div&gt;&lt;div&gt;&lt;br&gt;&lt;/div&gt;" style="text;strokeColor=none;fillColor=none;align=left;verticalAlign=top;spacingLeft=4;spacingRight=4;overflow=hidden;rotatable=0;points=[[0,0.5],[1,0.5]];portConstraint=eastwest;whiteSpace=wrap;html=1;" vertex="1" parent="qlqU-e81dwh_bHePKwua-32">
          <mxGeometry y="130" width="280" height="26" as="geometry" />
        </mxCell>
        <mxCell id="qlqU-e81dwh_bHePKwua-38" value="&lt;div&gt;&lt;div&gt;&lt;div&gt;+ Color m_SnakeColor&lt;/div&gt;&lt;/div&gt;&lt;/div&gt;&lt;div&gt;&lt;br&gt;&lt;/div&gt;" style="text;strokeColor=none;fillColor=none;align=left;verticalAlign=top;spacingLeft=4;spacingRight=4;overflow=hidden;rotatable=0;points=[[0,0.5],[1,0.5]];portConstraint=eastwest;whiteSpace=wrap;html=1;" vertex="1" parent="qlqU-e81dwh_bHePKwua-32">
          <mxGeometry y="156" width="280" height="26" as="geometry" />
        </mxCell>
        <mxCell id="qlqU-e81dwh_bHePKwua-39" value="&lt;div&gt;&lt;div&gt;&lt;div&gt;+ float m_SnakeSpeed&lt;/div&gt;&lt;/div&gt;&lt;/div&gt;" style="text;strokeColor=none;fillColor=none;align=left;verticalAlign=top;spacingLeft=4;spacingRight=4;overflow=hidden;rotatable=0;points=[[0,0.5],[1,0.5]];portConstraint=eastwest;whiteSpace=wrap;html=1;" vertex="1" parent="qlqU-e81dwh_bHePKwua-32">
          <mxGeometry y="182" width="280" height="26" as="geometry" />
        </mxCell>
        <mxCell id="qlqU-e81dwh_bHePKwua-40" value="&lt;pre style=&quot;box-sizing: border-box; -webkit-tap-highlight-color: rgba(0, 0, 0, 0); outline: none; color: rgb(192, 197, 206); background-color: rgb(43, 44, 47); font-family: var(--font-family-mono); font-variant-ligatures: none; padding: 10px 10px 10px 15px; font-size: 1.1rem; border-radius: 10px; overflow-wrap: break-word; text-wrap: wrap; text-align: start;&quot; class=&quot;language-rust z-code&quot; data-lang=&quot;rust&quot;&gt;&lt;code style=&quot;box-sizing: border-box; -webkit-tap-highlight-color: rgba(0, 0, 0, 0); outline: none; font-family: var(--font-family-mono); font-size: 1.05rem; color: rgb(200, 200, 200); border-radius: 10px; padding: 0px;&quot; data-lang=&quot;rust&quot; class=&quot;language-rust&quot;&gt;&lt;span style=&quot;box-sizing: border-box; -webkit-tap-highlight-color: rgba(0, 0, 0, 0); outline: none;&quot; class=&quot;z-source z-rust&quot;&gt;&lt;span style=&quot;box-sizing: border-box; -webkit-tap-highlight-color: rgba(0, 0, 0, 0); outline: none;&quot; class=&quot;z-meta z-function z-rust&quot;&gt;&lt;span style=&quot;box-sizing: border-box; -webkit-tap-highlight-color: rgba(0, 0, 0, 0); outline: none;&quot; class=&quot;z-meta z-block z-rust&quot;&gt;    &lt;span style=&quot;box-sizing: border-box; -webkit-tap-highlight-color: rgba(0, 0, 0, 0); outline: none;&quot; class=&quot;z-meta z-path z-rust&quot;&gt;App&lt;span style=&quot;box-sizing: border-box; -webkit-tap-highlight-color: rgba(0, 0, 0, 0); outline: none; color: rgb(197, 148, 197);&quot; class=&quot;z-punctuation z-accessor z-rust&quot;&gt;::&lt;/span&gt;&lt;/span&gt;new&lt;span style=&quot;box-sizing: border-box; -webkit-tap-highlight-color: rgba(0, 0, 0, 0); outline: none;&quot; class=&quot;z-meta z-group z-rust&quot;&gt;&lt;span style=&quot;box-sizing: border-box; -webkit-tap-highlight-color: rgba(0, 0, 0, 0); outline: none;&quot; class=&quot;z-punctuation z-section z-group z-begin z-rust&quot;&gt;(&lt;/span&gt;&lt;/span&gt;&lt;span style=&quot;box-sizing: border-box; -webkit-tap-highlight-color: rgba(0, 0, 0, 0); outline: none;&quot; class=&quot;z-meta z-group z-rust&quot;&gt;&lt;span style=&quot;box-sizing: border-box; -webkit-tap-highlight-color: rgba(0, 0, 0, 0); outline: none;&quot; class=&quot;z-punctuation z-section z-group z-end z-rust&quot;&gt;)&lt;/span&gt;&lt;/span&gt;&lt;br/&gt;&lt;/span&gt;&lt;/span&gt;&lt;/span&gt;&lt;span style=&quot;box-sizing: border-box; -webkit-tap-highlight-color: rgba(0, 0, 0, 0); outline: none;&quot; class=&quot;z-source z-rust&quot;&gt;&lt;span style=&quot;box-sizing: border-box; -webkit-tap-highlight-color: rgba(0, 0, 0, 0); outline: none;&quot; class=&quot;z-meta z-function z-rust&quot;&gt;&lt;span style=&quot;box-sizing: border-box; -webkit-tap-highlight-color: rgba(0, 0, 0, 0); outline: none;&quot; class=&quot;z-meta z-block z-rust&quot;&gt;        &lt;span style=&quot;box-sizing: border-box; -webkit-tap-highlight-color: rgba(0, 0, 0, 0); outline: none; color: rgb(197, 148, 197);&quot; class=&quot;z-punctuation z-accessor z-dot z-rust&quot;&gt;.&lt;/span&gt;&lt;span style=&quot;box-sizing: border-box; -webkit-tap-highlight-color: rgba(0, 0, 0, 0); outline: none; color: rgb(102, 153, 204);&quot; class=&quot;z-support z-function z-rust&quot;&gt;add_plugins&lt;/span&gt;&lt;span style=&quot;box-sizing: border-box; -webkit-tap-highlight-color: rgba(0, 0, 0, 0); outline: none;&quot; class=&quot;z-meta z-group z-rust&quot;&gt;&lt;span style=&quot;box-sizing: border-box; -webkit-tap-highlight-color: rgba(0, 0, 0, 0); outline: none;&quot; class=&quot;z-punctuation z-section z-group z-begin z-rust&quot;&gt;(&lt;/span&gt;DefaultPlugins&lt;/span&gt;&lt;span style=&quot;box-sizing: border-box; -webkit-tap-highlight-color: rgba(0, 0, 0, 0); outline: none;&quot; class=&quot;z-meta z-group z-rust&quot;&gt;&lt;span style=&quot;box-sizing: border-box; -webkit-tap-highlight-color: rgba(0, 0, 0, 0); outline: none;&quot; class=&quot;z-punctuation z-section z-group z-end z-rust&quot;&gt;)&lt;/span&gt;&lt;/span&gt;&lt;br/&gt;&lt;/span&gt;&lt;/span&gt;&lt;/span&gt;&lt;span style=&quot;box-sizing: border-box; -webkit-tap-highlight-color: rgba(0, 0, 0, 0); outline: none;&quot; class=&quot;z-source z-rust&quot;&gt;&lt;span style=&quot;box-sizing: border-box; -webkit-tap-highlight-color: rgba(0, 0, 0, 0); outline: none;&quot; class=&quot;z-meta z-function z-rust&quot;&gt;&lt;span style=&quot;box-sizing: border-box; -webkit-tap-highlight-color: rgba(0, 0, 0, 0); outline: none;&quot; class=&quot;z-meta z-block z-rust&quot;&gt;        &lt;span style=&quot;box-sizing: border-box; -webkit-tap-highlight-color: rgba(0, 0, 0, 0); outline: none; color: rgb(197, 148, 197);&quot; class=&quot;z-punctuation z-accessor z-dot z-rust&quot;&gt;.&lt;/span&gt;&lt;span style=&quot;box-sizing: border-box; -webkit-tap-highlight-color: rgba(0, 0, 0, 0); outline: none;&quot; class=&quot;z-meta z-path z-rust&quot;&gt;init_gizmo_group&lt;span style=&quot;box-sizing: border-box; -webkit-tap-highlight-color: rgba(0, 0, 0, 0); outline: none; color: rgb(197, 148, 197);&quot; class=&quot;z-punctuation z-accessor z-rust&quot;&gt;::&lt;/span&gt;&lt;/span&gt;&lt;span style=&quot;box-sizing: border-box; -webkit-tap-highlight-color: rgba(0, 0, 0, 0); outline: none; color: rgb(223, 196, 121);&quot; class=&quot;z-meta z-generic z-rust&quot;&gt;&lt;span style=&quot;box-sizing: border-box; -webkit-tap-highlight-color: rgba(0, 0, 0, 0); outline: none; color: rgb(192, 197, 206);&quot; class=&quot;z-punctuation z-definition z-generic z-begin z-rust&quot;&gt;&amp;lt;&lt;/span&gt;MyRoundGizmos&lt;span style=&quot;box-sizing: border-box; -webkit-tap-highlight-color: rgba(0, 0, 0, 0); outline: none; color: rgb(192, 197, 206);&quot; class=&quot;z-punctuation z-definition z-generic z-end z-rust&quot;&gt;&amp;gt;&lt;/span&gt;&lt;/span&gt;&lt;span style=&quot;box-sizing: border-box; -webkit-tap-highlight-color: rgba(0, 0, 0, 0); outline: none;&quot; class=&quot;z-meta z-group z-rust&quot;&gt;&lt;span style=&quot;box-sizing: border-box; -webkit-tap-highlight-color: rgba(0, 0, 0, 0); outline: none;&quot; class=&quot;z-punctuation z-section z-group z-begin z-rust&quot;&gt;(&lt;/span&gt;&lt;/span&gt;&lt;span style=&quot;box-sizing: border-box; -webkit-tap-highlight-color: rgba(0, 0, 0, 0); outline: none;&quot; class=&quot;z-meta z-group z-rust&quot;&gt;&lt;span style=&quot;box-sizing: border-box; -webkit-tap-highlight-color: rgba(0, 0, 0, 0); outline: none;&quot; class=&quot;z-punctuation z-section z-group z-end z-rust&quot;&gt;)&lt;/span&gt;&lt;/span&gt;&lt;br/&gt;&lt;/span&gt;&lt;/span&gt;&lt;/span&gt;&lt;span style=&quot;box-sizing: border-box; -webkit-tap-highlight-color: rgba(0, 0, 0, 0); outline: none;&quot; class=&quot;z-source z-rust&quot;&gt;&lt;span style=&quot;box-sizing: border-box; -webkit-tap-highlight-color: rgba(0, 0, 0, 0); outline: none;&quot; class=&quot;z-meta z-function z-rust&quot;&gt;&lt;span style=&quot;box-sizing: border-box; -webkit-tap-highlight-color: rgba(0, 0, 0, 0); outline: none;&quot; class=&quot;z-meta z-block z-rust&quot;&gt;        &lt;span style=&quot;box-sizing: border-box; -webkit-tap-highlight-color: rgba(0, 0, 0, 0); outline: none; color: rgb(197, 148, 197);&quot; class=&quot;z-punctuation z-accessor z-dot z-rust&quot;&gt;.&lt;/span&gt;&lt;span style=&quot;box-sizing: border-box; -webkit-tap-highlight-color: rgba(0, 0, 0, 0); outline: none; color: rgb(102, 153, 204);&quot; class=&quot;z-support z-function z-rust&quot;&gt;add_systems&lt;/span&gt;&lt;span style=&quot;box-sizing: border-box; -webkit-tap-highlight-color: rgba(0, 0, 0, 0); outline: none;&quot; class=&quot;z-meta z-group z-rust&quot;&gt;&lt;span style=&quot;box-sizing: border-box; -webkit-tap-highlight-color: rgba(0, 0, 0, 0); outline: none;&quot; class=&quot;z-punctuation z-section z-group z-begin z-rust&quot;&gt;(&lt;/span&gt;Startup&lt;span style=&quot;box-sizing: border-box; -webkit-tap-highlight-color: rgba(0, 0, 0, 0); outline: none;&quot; class=&quot;z-punctuation z-separator z-rust&quot;&gt;,&lt;/span&gt; setup&lt;/span&gt;&lt;span style=&quot;box-sizing: border-box; -webkit-tap-highlight-color: rgba(0, 0, 0, 0); outline: none;&quot; class=&quot;z-meta z-group z-rust&quot;&gt;&lt;span style=&quot;box-sizing: border-box; -webkit-tap-highlight-color: rgba(0, 0, 0, 0); outline: none;&quot; class=&quot;z-punctuation z-section z-group z-end z-rust&quot;&gt;)&lt;/span&gt;&lt;/span&gt;&lt;br/&gt;&lt;/span&gt;&lt;/span&gt;&lt;/span&gt;&lt;span style=&quot;box-sizing: border-box; -webkit-tap-highlight-color: rgba(0, 0, 0, 0); outline: none;&quot; class=&quot;z-source z-rust&quot;&gt;&lt;span style=&quot;box-sizing: border-box; -webkit-tap-highlight-color: rgba(0, 0, 0, 0); outline: none;&quot; class=&quot;z-meta z-function z-rust&quot;&gt;&lt;span style=&quot;box-sizing: border-box; -webkit-tap-highlight-color: rgba(0, 0, 0, 0); outline: none;&quot; class=&quot;z-meta z-block z-rust&quot;&gt;        &lt;span style=&quot;box-sizing: border-box; -webkit-tap-highlight-color: rgba(0, 0, 0, 0); outline: none; color: rgb(197, 148, 197);&quot; class=&quot;z-punctuation z-accessor z-dot z-rust&quot;&gt;.&lt;/span&gt;&lt;span style=&quot;box-sizing: border-box; -webkit-tap-highlight-color: rgba(0, 0, 0, 0); outline: none; color: rgb(102, 153, 204);&quot; class=&quot;z-support z-function z-rust&quot;&gt;add_systems&lt;/span&gt;&lt;span style=&quot;box-sizing: border-box; -webkit-tap-highlight-color: rgba(0, 0, 0, 0); outline: none;&quot; class=&quot;z-meta z-group z-rust&quot;&gt;&lt;span style=&quot;box-sizing: border-box; -webkit-tap-highlight-color: rgba(0, 0, 0, 0); outline: none;&quot; class=&quot;z-punctuation z-section z-group z-begin z-rust&quot;&gt;(&lt;/span&gt;Update&lt;span style=&quot;box-sizing: border-box; -webkit-tap-highlight-color: rgba(0, 0, 0, 0); outline: none;&quot; class=&quot;z-punctuation z-separator z-rust&quot;&gt;,&lt;/span&gt; &lt;span style=&quot;box-sizing: border-box; -webkit-tap-highlight-color: rgba(0, 0, 0, 0); outline: none;&quot; class=&quot;z-meta z-group z-rust&quot;&gt;&lt;span style=&quot;box-sizing: border-box; -webkit-tap-highlight-color: rgba(0, 0, 0, 0); outline: none;&quot; class=&quot;z-punctuation z-section z-group z-begin z-rust&quot;&gt;(&lt;/span&gt;draw_example_collection&lt;span style=&quot;box-sizing: border-box; -webkit-tap-highlight-color: rgba(0, 0, 0, 0); outline: none;&quot; class=&quot;z-punctuation z-separator z-rust&quot;&gt;,&lt;/span&gt; update_config&lt;/span&gt;&lt;span style=&quot;box-sizing: border-box; -webkit-tap-highlight-color: rgba(0, 0, 0, 0); outline: none;&quot; class=&quot;z-meta z-group z-rust&quot;&gt;&lt;span style=&quot;box-sizing: border-box; -webkit-tap-highlight-color: rgba(0, 0, 0, 0); outline: none;&quot; class=&quot;z-punctuation z-section z-group z-end z-rust&quot;&gt;)&lt;/span&gt;&lt;/span&gt;&lt;/span&gt;&lt;span style=&quot;box-sizing: border-box; -webkit-tap-highlight-color: rgba(0, 0, 0, 0); outline: none;&quot; class=&quot;z-meta z-group z-rust&quot;&gt;&lt;span style=&quot;box-sizing: border-box; -webkit-tap-highlight-color: rgba(0, 0, 0, 0); outline: none;&quot; class=&quot;z-punctuation z-section z-group z-end z-rust&quot;&gt;)&lt;/span&gt;&lt;/span&gt;&lt;br/&gt;&lt;/span&gt;&lt;/span&gt;&lt;/span&gt;&lt;span style=&quot;box-sizing: border-box; -webkit-tap-highlight-color: rgba(0, 0, 0, 0); outline: none;&quot; class=&quot;z-source z-rust&quot;&gt;&lt;span style=&quot;box-sizing: border-box; -webkit-tap-highlight-color: rgba(0, 0, 0, 0); outline: none;&quot; class=&quot;z-meta z-function z-rust&quot;&gt;&lt;span style=&quot;box-sizing: border-box; -webkit-tap-highlight-color: rgba(0, 0, 0, 0); outline: none;&quot; class=&quot;z-meta z-block z-rust&quot;&gt;        &lt;span style=&quot;box-sizing: border-box; -webkit-tap-highlight-color: rgba(0, 0, 0, 0); outline: none; color: rgb(197, 148, 197);&quot; class=&quot;z-punctuation z-accessor z-dot z-rust&quot;&gt;.&lt;/span&gt;&lt;span style=&quot;box-sizing: border-box; -webkit-tap-highlight-color: rgba(0, 0, 0, 0); outline: none; color: rgb(102, 153, 204);&quot; class=&quot;z-support z-function z-rust&quot;&gt;run&lt;/span&gt;&lt;span style=&quot;box-sizing: border-box; -webkit-tap-highlight-color: rgba(0, 0, 0, 0); outline: none;&quot; class=&quot;z-meta z-group z-rust&quot;&gt;&lt;span style=&quot;box-sizing: border-box; -webkit-tap-highlight-color: rgba(0, 0, 0, 0); outline: none;&quot; class=&quot;z-punctuation z-section z-group z-begin z-rust&quot;&gt;(&lt;/span&gt;&lt;/span&gt;&lt;span style=&quot;box-sizing: border-box; -webkit-tap-highlight-color: rgba(0, 0, 0, 0); outline: none;&quot; class=&quot;z-meta z-group z-rust&quot;&gt;&lt;span style=&quot;box-sizing: border-box; -webkit-tap-highlight-color: rgba(0, 0, 0, 0); outline: none;&quot; class=&quot;z-punctuation z-section z-group z-end z-rust&quot;&gt;)&lt;/span&gt;&lt;/span&gt;&lt;span style=&quot;box-sizing: border-box; -webkit-tap-highlight-color: rgba(0, 0, 0, 0); outline: none;&quot; class=&quot;z-punctuation z-terminator z-rust&quot;&gt;;&lt;/span&gt;&lt;/span&gt;&lt;/span&gt;&lt;/span&gt;&lt;/code&gt;&lt;/pre&gt;" style="html=1;whiteSpace=wrap;" vertex="1" parent="1">
          <mxGeometry x="170" y="870" width="110" height="50" as="geometry" />
        </mxCell>
      </root>
    </mxGraphModel>
  </diagram>
</mxfile>
